# xmcd
#
# Track frame offsets:
#	150
#	10975
#	25820
#	36780
#	50100
#	63295
#	79128
#	88348
#	98523
#	114318
#	124285
#	135678
#	146378
#	158993
#
# Disc length: 2291 seconds
#
# Revision: 7
# Processed by: cddbd v1.5.2PL0 Copyright (c) Steve Scherf et al.
# Submitted via: EasyCDDAExtractor 16.0.6.1
#
DISCID=b908f10e
DTITLE=Varios - C-057 Desperado CD 1
DYEAR=1900
DGENRE=Country
TTITLE0=Roger Miller - King Of The Road
TTITLE1=Kingston trio - Tom Dooley
TTITLE2=Sammi Smith - Help Me Make It Through The Night
TTITLE3=Lynn Anderson - Rose Garden
TTITLE4=Kenny Rogers - Ruby (Don'Take Your Love To Town)
TTITLE5=Billie Jo Spears - Blanket On The Ground
TTITLE6=Frankie Laine - Rawhide
TTITLE7=Johnny Cash - Ballad Of A Teenage Queen
TTITLE8=Skeeter Davis - Desperado
TTITLE9=Willy Nelson - Let's Pretend
TTITLE10=Dolly Parton - Makin' Believe
TTITLE11=Freddy Fender - A Man Can Cry
TTITLE12=Gene Autry - Goodniht Irene
TTITLE13=Charlie Rich - Behind Closed Doors
EXTD=
EXTT0=
EXTT1=
EXTT2=
EXTT3=
EXTT4=
EXTT5=
EXTT6=
EXTT7=
EXTT8=
EXTT9=
EXTT10=
EXTT11=
EXTT12=
EXTT13=
PLAYORDER=
